<svg version="1.2" xmlns="http://www.w3.org/2000/svg" viewBox="0 0 1547 1547" width="1547" height="1547">
	<title>GGAL-svg</title>
	<style>
		.s0 { fill: #fa6400 } 
	</style>
	<path id="Layer" fill-rule="evenodd" class="s0" d="m773.3 1546.4c-427.5 0-773.1-345.6-773.1-773.1 0-427.5 345.6-773.1 773.1-773.1 427.5 0 773.1 345.6 773.1 773.1 0 427.5-345.6 773.1-773.1 773.1zm331.4-1091.6c0-39.4-32.3-71.7-71.7-71.7h-1.3q-0.7 0-0.7 0.6h-1.3q0 0.7-0.6 0.7c-2.6 1.9-16.2 9.7-44 18.1-34.3 10.3-93.1 22.6-184.3 25.2 2.6-90.6 14.9-149.4 25.2-183 9.7-29.8 17.5-42.7 18.1-43.4v-1.2q0.7-0.7 0.7-1.3v-2c0-28.4-15.5-53-39.5-63.4q-15.5-7.1-31.7-7.1-7.1 0-14.2 1.3-7.1 1.3-13.6 3.9-6.4 2.6-12.2 6.5-5.9 3.9-11 9-4.6 4.6-8.4 10.4-3.9 5.8-6.5 12.3-2.6 5.8-4.5 12.9-1.3 6.5-1.3 13.6v3.2q0 0.7 0.6 1.3c2 3.2 9.1 16.2 18.1 44 10.4 33.6 22.7 92.4 25.2 182.3-91.1-1.9-150.6-14.8-184.3-25.2-30.4-9-43.9-17.4-43.9-17.4l-0.7-0.7h-0.6q-0.7 0-0.7-0.6h-1.9c-39.5 0-71.8 32.3-71.8 71.7 0 39.5 32.3 71.8 71.8 71.8h2.6q0-0.6 0.6-0.6h0.7c0 0 13.5-9.1 43.9-18.1 33.7-10.4 92.5-23.3 183-25.3-5.1 99-23.2 155.2-33.6 180.5-5.8 12.9-21.3 44.6-46.5 51.7q-0.7 0.6-2 1.3-0.6 0.6-1.3 1.9-0.6 1.3-0.6 2v2.6l107.3 724.9q0 1.3 0.7 1.9 0.6 1.3 1.3 2 0.6 0.6 1.9 0.6 0.7 0.6 1.9 0.6 1.3 0 2-0.6 1.3 0 1.9-0.6 0.7-0.7 1.3-2 0.7-0.6 0.7-1.9l106.7-724.9v-3.3c-0.7-1.9-2-3.9-3.9-4.5-25.2-7.1-41.4-38.8-46.6-51.7l-1.3-3.3c-10.3-24.5-27.1-80.8-32.3-177.2 90.5 2.6 149.4 14.9 183 25.3 27.2 8.4 41.4 16.1 44 17.4q0.6 0.7 1.3 0.7 0 0.6 0.6 0.6h2c39.4 0 71.7-32.3 71.7-71.8z"/>
</svg>